Coordinates
version=1
nRows=12
nColumns=24
inDegrees=yes

Units are S.I. units (second, meters, Newtons, ...)
Angles are in degrees.

endheader
time	pelvis_tilt	pelvis_list	pelvis_rotation	pelvis_tx	pelvis_ty	pelvis_tz	hip_flexion_r	hip_adduction_r	hip_rotation_r	knee_angle_r	ankle_angle_r	subtalar_angle_r	mtp_angle_r	hip_flexion_l	hip_adduction_l	hip_rotation_l	knee_angle_l	ankle_angle_l	subtalar_angle_l	mtp_angle_l	lumbar_extension	lumbar_bending	lumbar_rotation
      2.07500000	     22.88586210	     -5.83245259	      8.86582336	      0.20381357	      0.85528421	     -0.02425159	    -20.97146010	     13.64035370	    -20.05442583	     -3.79401374	     23.04061946	     11.79462629	     34.76113443	     -4.52389168	    -12.36912290	     -6.58296914	    -66.27944883	     17.62992324	     -0.07715037	     50.80473730	    -37.83398735	     10.48371003	     -8.50676639
      2.08000000	     22.87140613	     -5.65105395	      8.73426782	      0.20881821	      0.85572866	     -0.02378258	    -21.43861204	     13.49468836	    -19.94217020	     -3.64827496	     23.22563362	     11.90596787	     34.69395250	     -4.02843866	    -12.00636316	     -6.80785853	    -65.42372211	     18.21916632	      0.63884603	     50.80313030	    -37.85190718	     10.20471728	     -8.44388228
      2.08500000	     22.86852432	     -5.46780383	      8.60981364	      0.21383955	      0.85613897	     -0.02333625	    -21.91962553	     13.34907928	    -19.81134274	     -3.50210680	     23.41762438	     11.99433837	     34.59163975	     -3.56719729	    -11.64355717	     -7.03803586	    -64.47664081	     18.79221644	      1.32152131	     50.73835033	    -37.87736456	      9.92731446	     -8.38436860
      2.09000000	     22.87266804	     -5.29490531	      8.49228574	      0.21888071	      0.85653052	     -0.02293071	    -22.42851317	     13.21551075	    -19.61736607	     -3.30490505	     23.53635772	     12.11936085	     34.32164191	     -3.13481823	    -11.29104363	     -7.26398154	    -63.44262534	     19.35962916	      2.01837628	     50.43595500	    -37.90519438	      9.66768298	     -8.30467822
      2.09500000	     22.89988250	     -5.09466349	      8.36835626	      0.22395261	      0.85691090	     -0.02251371	    -22.95093117	     13.05171811	    -19.43192472	     -3.15427961	     23.74442321	     12.16202123	     34.01219884	     -2.76857409	    -10.91790348	     -7.52656177	    -62.30110007	     19.90938656	      2.62319631	     50.05475652	    -37.95730165	      9.37609800	     -8.25330470
      2.10000000	     22.89215895	     -4.89002618	      8.26460348	      0.22902149	      0.85720484	     -0.02216743	    -23.40480212	     12.87954027	    -19.30760610	     -3.06780537	     24.04198984	     12.08851218	     33.87602495	     -2.37098799	    -10.52561761	     -7.75991927	    -61.08517796	     20.38135285	      3.03853229	     49.88813781	    -37.96580939	      9.09218332	     -8.24610393
      2.10500000	     22.92953248	     -4.68228035	      8.15077786	      0.23411732	      0.85752832	     -0.02182100	    -23.94216974	     12.70650651	    -19.09312279	     -2.90724729	     24.23423947	     12.07370806	     33.69142111	     -2.06655844	    -10.13968294	     -8.01493201	    -59.76244621	     20.86048954	      3.47476147	     49.66390396	    -38.02353966	      8.80397478	     -8.20415120
      2.11000000	     22.94905045	     -4.50001375	      8.05927549	      0.23922578	      0.85775340	     -0.02152240	    -24.45421160	     12.56207542	    -18.86180939	     -2.76102003	     24.49665107	     12.10217847	     32.17077913	     -1.74845055	     -9.77833486	     -8.23957882	    -58.40823837	     21.49936199	      3.99790074	     47.51647284	    -38.05336638	      8.55227151	     -8.17949345
      2.11500000	     22.98210067	     -4.28726035	      7.95003944	      0.24435325	      0.85798549	     -0.02122380	    -24.97102334	     12.37603246	    -18.66416403	     -2.64317591	     24.76246471	     12.07621472	     32.14006395	     -1.49018235	     -9.38543728	     -8.49295683	    -56.92151125	     21.88574061	      4.26074991	     47.50052493	    -38.10061415	      8.26192369	     -8.15531704
      2.12000000	     23.03510011	     -4.07500770	      7.84821562	      0.24949338	      0.85820637	     -0.02098235	    -25.52045626	     12.19287459	    -18.44335272	     -2.49677080	     24.95800175	     12.00655367	     32.06681035	     -1.28483247	     -8.99365092	     -8.74724870	    -55.34861565	     22.27198499	      4.46988139	     47.43180379	    -38.16836516	      7.98524940	     -8.14403212
      2.12500000	     23.09916840	     -3.86578895	      7.74339174	      0.25464270	      0.85840214	     -0.02074924	    -26.08096223	     12.01046032	    -18.21021191	     -2.35504856	     25.14703310	     11.91788078	     31.95917261	     -1.12178313	     -8.60879168	     -9.00833956	    -53.69486762	     22.63649098	      4.64585043	     47.31139709	    -38.24744826	      7.71020339	     -8.12992412
      2.13000000	     23.15430909	     -3.65635491	      7.63879255	      0.25980714	      0.85855607	     -0.02053908	    -26.62670389	     11.82376183	    -17.97839548	     -2.22535261	     25.35515755	     11.81395954	     31.83789603	     -0.98063530	     -8.21996412	     -9.26346503	    -51.95786277	     22.98897819	      4.79844009	     47.16501980	    -38.31505913	      7.43486873	     -8.12451007
